<?xml version="1.0" standalone="no"?>
<!DOCTYPE svg PUBLIC "-//W3C//DTD SVG 20010904//EN"
 "http://www.w3.org/TR/2001/REC-SVG-20010904/DTD/svg10.dtd">
<svg version="1.0" xmlns="http://www.w3.org/2000/svg"
 width="1200.000000pt" height="1200.000000pt" viewBox="0 0 1200.000000 1200.000000"
 preserveAspectRatio="xMidYMid meet">

<g transform="translate(0.000000,1200.000000) scale(0.100000,-0.100000)"
fill="#000000" stroke="none">
<path d="M2305 11119 c-137 -21 -306 -74 -415 -129 -21 -11 -74 -47 -118 -80
-298 -224 -409 -630 -255 -933 87 -174 249 -327 428 -407 127 -56 177 -65 355
-64 144 1 176 4 253 26 84 24 89 24 110 8 49 -39 301 -150 339 -150 33 0 36
29 23 200 l-13 165 32 25 c113 90 220 219 275 333 100 202 92 435 -21 624 -42
71 -155 187 -233 238 -75 50 -189 99 -291 126 -62 17 -114 22 -244 25 -91 1
-192 -2 -225 -7z m455 -89 c222 -57 413 -199 502 -373 28 -56 58 -182 58 -246
-1 -195 -116 -407 -306 -563 l-76 -63 6 -55 c12 -119 18 -250 12 -250 -12 0
-160 62 -171 71 -5 6 7 26 30 51 37 40 38 41 5 13 -19 -17 -39 -36 -45 -42 -7
-9 -15 -10 -25 -3 -12 8 2 26 72 97 48 49 91 93 95 98 4 6 -38 -34 -93 -88
-55 -54 -103 -94 -107 -90 -4 4 43 58 105 120 62 62 108 113 103 113 -6 0 -60
-49 -120 -110 -73 -73 -113 -106 -119 -100 -7 7 42 63 147 168 86 86 157 162
157 167 0 5 -73 -63 -162 -152 -133 -131 -169 -162 -196 -165 -32 -5 -29 -1
65 94 54 54 93 98 88 98 -5 0 -57 -47 -115 -104 -58 -57 -116 -107 -130 -111
-17 -5 31 49 143 162 92 92 167 173 167 178 0 5 -82 -72 -183 -173 -162 -162
-187 -183 -222 -189 l-40 -5 70 73 70 74 -80 -77 c-56 -55 -88 -78 -105 -78
-21 0 -3 22 115 143 l140 142 -145 -142 c-130 -128 -149 -143 -180 -143 l-34
0 59 62 60 62 -60 -54 c-33 -30 -61 -58 -63 -62 -2 -5 -13 -8 -25 -8 -17 0 6
28 98 120 66 66 115 120 110 120 -6 0 -62 -52 -125 -115 -102 -103 -118 -115
-149 -115 l-35 0 49 50 c27 27 47 52 44 55 -3 2 -27 -18 -54 -45 -44 -45 -75
-62 -75 -43 0 4 46 55 102 113 l103 105 -111 -109 c-92 -89 -115 -107 -133
-101 -11 3 -21 10 -21 14 0 5 38 45 85 90 46 44 81 81 77 81 -3 0 -46 -39 -93
-86 -55 -55 -91 -84 -99 -79 -8 5 36 55 131 151 79 79 139 144 134 144 -6 0
-73 -63 -150 -140 -77 -77 -144 -140 -150 -140 -5 0 -17 5 -25 10 -12 8 -3 22
50 75 35 36 60 65 54 65 -5 0 -36 -27 -69 -60 -53 -54 -85 -73 -85 -52 0 4 52
59 115 122 63 63 112 116 109 119 -2 3 -58 -48 -124 -114 -104 -104 -121 -117
-135 -105 -14 12 -11 19 34 64 28 29 51 56 51 61 0 5 -26 -17 -59 -49 -40 -39
-61 -54 -66 -46 -5 8 28 48 89 109 53 53 96 101 96 106 0 5 -47 -37 -105 -95
-99 -99 -106 -104 -122 -87 -17 16 -13 21 62 99 92 94 82 90 -19 -7 -47 -47
-71 -64 -79 -56 -7 7 28 48 115 136 69 69 123 125 120 125 -4 0 -62 -55 -129
-122 -107 -107 -124 -120 -138 -108 -14 12 -2 28 117 147 73 73 128 133 123
133 -5 0 -67 -57 -137 -127 -85 -85 -131 -124 -138 -117 -6 6 49 68 165 184
96 96 175 179 175 185 0 5 -80 -70 -178 -168 -140 -140 -180 -175 -190 -165
-7 7 -12 17 -12 23 0 6 38 48 85 95 46 46 82 86 79 89 -2 3 -44 -35 -93 -83
-62 -61 -90 -83 -94 -73 -3 9 41 60 124 143 71 71 129 131 129 135 0 3 -59
-53 -130 -125 -105 -106 -132 -128 -140 -116 -5 8 -10 19 -10 23 0 4 56 64
123 132 68 69 121 125 118 125 -4 0 -60 -54 -126 -120 -80 -80 -123 -116 -129
-110 -7 7 48 68 164 185 96 96 170 175 165 175 -5 0 -85 -75 -176 -166 -162
-162 -166 -165 -173 -138 -6 24 1 35 66 101 40 40 68 73 63 73 -5 0 -40 -30
-77 -67 -52 -52 -68 -63 -68 -48 0 12 43 64 110 130 60 60 107 111 104 114 -2
3 -54 -44 -114 -104 -95 -95 -110 -106 -110 -85 0 19 30 55 115 140 63 63 115
119 115 125 0 5 -51 -41 -113 -103 -62 -61 -116 -112 -120 -112 -24 0 10 40
150 182 86 87 153 158 148 158 -5 0 -74 -64 -152 -142 -122 -121 -143 -139
-143 -118 0 18 20 46 70 95 38 38 67 71 64 74 -2 3 -31 -22 -64 -54 -44 -43
-60 -54 -60 -41 0 10 43 62 95 115 52 54 95 101 95 106 0 5 -38 -28 -85 -75
-47 -47 -85 -80 -85 -74 0 7 7 17 15 24 8 7 12 16 9 21 -6 10 21 65 44 92 9
10 17 25 18 33 3 17 8 23 69 94 47 54 135 130 149 130 6 0 -41 -53 -104 -117
l-115 -118 100 95 c110 105 137 135 129 143 -20 20 221 117 366 147 137 28
141 29 300 25 110 -2 166 -8 230 -25z"/>
<path d="M1710 10667 c-52 -51 -104 -103 -115 -117 -10 -14 34 27 98 90 107
105 122 120 115 120 -2 0 -46 -42 -98 -93z"/>
<path d="M8859 10959 c-62 -14 -142 -54 -189 -94 -43 -36 -113 -120 -123 -147
-3 -9 -11 -7 -28 8 -118 106 -305 51 -338 -98 -10 -43 9 -122 37 -151 l22 -23
-59 -12 c-109 -23 -218 -100 -263 -186 -29 -56 -35 -145 -14 -201 22 -55 81
-108 142 -125 35 -10 44 -16 38 -29 -22 -52 -34 -121 -29 -166 22 -181 242
-294 415 -213 30 14 66 36 79 48 25 25 26 24 56 -31 20 -38 91 -98 144 -123
36 -16 65 -21 132 -21 78 0 91 3 160 37 41 20 91 54 112 76 l38 39 52 -51 c57
-57 104 -76 185 -76 113 0 230 77 286 188 26 51 39 62 51 43 9 -16 161 -71
240 -87 41 -8 93 -14 117 -12 36 3 44 7 46 26 3 16 -4 29 -20 40 -68 47 -218
211 -218 239 0 5 17 15 37 22 51 19 129 99 142 147 35 127 -23 251 -145 309
-30 14 -54 27 -54 29 0 2 7 23 16 47 53 152 -24 327 -165 374 -108 36 -244 7
-329 -69 l-40 -36 -22 42 c-77 148 -244 249 -409 247 -36 -1 -82 -5 -102 -10z
m212 -78 c141 -45 240 -150 270 -291 16 -75 63 -81 82 -11 12 46 84 115 142
134 151 52 291 -26 303 -167 6 -79 -4 -119 -43 -166 -19 -23 -35 -45 -35 -48
1 -22 25 -36 76 -43 104 -14 184 -98 184 -194 0 -74 -65 -143 -159 -168 -47
-13 -56 -24 -47 -61 7 -29 64 -113 123 -183 l44 -52 -63 19 c-35 11 -98 37
-141 60 -99 50 -112 51 -128 3 -42 -133 -140 -222 -243 -223 -39 0 -39 0 -21
20 10 11 16 22 13 25 -3 3 -13 -4 -23 -15 -10 -11 -27 -20 -39 -20 -16 0 -3
17 57 78 42 42 77 82 77 87 0 5 -37 -28 -83 -73 -46 -45 -86 -79 -90 -75 -4 4
36 52 90 107 l98 101 -102 -100 c-82 -79 -105 -97 -115 -87 -10 10 19 44 137
165 l150 152 -153 -150 c-145 -143 -154 -149 -168 -130 -13 18 -10 24 48 84
35 36 48 52 29 36 -19 -17 -45 -42 -59 -58 -22 -25 -42 -28 -42 -6 0 6 45 55
100 110 55 56 100 104 100 107 0 4 -42 -35 -93 -86 -82 -81 -95 -91 -107 -78
-24 30 -48 19 -75 -34 -27 -53 -88 -120 -127 -140 -13 -7 4 15 37 49 33 33 55
61 49 61 -5 0 -43 -34 -84 -75 -43 -44 -83 -75 -95 -75 -14 0 17 37 113 133
72 73 132 134 132 137 0 3 -65 -59 -144 -137 -127 -127 -148 -143 -177 -143
l-33 0 64 65 c35 36 60 65 54 65 -5 0 -36 -27 -69 -60 -53 -54 -85 -73 -85
-53 0 4 51 60 112 123 l113 115 -121 -119 c-113 -110 -123 -117 -144 -106
l-22 12 36 37 c52 53 45 64 -8 12 -30 -29 -46 -39 -51 -31 -5 8 25 45 81 101
49 49 84 89 79 89 -5 0 -48 -39 -96 -86 -76 -76 -87 -83 -99 -69 -12 14 -6 24
46 78 l59 62 -62 -59 -62 -60 -12 30 c-6 16 -14 52 -16 80 -5 48 -3 54 33 95
l39 44 -52 -47 c-29 -27 -59 -48 -67 -48 -8 0 -22 -16 -32 -35 -18 -39 -83
-101 -120 -115 -60 -23 -57 -8 16 67 l75 78 -75 -70 c-41 -39 -78 -76 -83 -82
-4 -7 -18 -13 -30 -13 -17 0 9 31 116 138 75 75 137 142 137 147 0 5 -64 -55
-143 -133 -132 -132 -146 -143 -171 -136 -28 7 -26 9 93 128 67 67 121 126
121 131 0 5 -58 -48 -129 -119 -86 -86 -131 -124 -136 -116 -5 8 53 73 166
186 96 96 171 174 168 174 -3 0 -84 -79 -180 -175 l-174 -175 -30 30 -30 30
228 228 c125 125 227 232 227 237 0 5 -103 -93 -229 -219 -222 -222 -230 -229
-237 -202 -6 26 4 39 127 162 74 74 129 134 124 134 -5 0 -67 -57 -137 -127
-89 -88 -128 -122 -128 -109 0 12 67 87 165 186 91 91 165 170 165 175 0 5
-73 -62 -161 -150 -132 -131 -157 -152 -138 -116 13 24 36 53 52 64 15 12 27
28 27 36 0 9 42 58 93 111 l92 95 -92 -89 c-69 -67 -96 -87 -109 -82 -15 6 9
34 127 154 l144 147 -161 -158 -161 -158 -47 2 c-25 2 -52 6 -58 11 -9 5 32
53 132 155 l145 148 -151 -148 -151 -149 -29 26 -29 25 165 165 c154 155 167
166 202 166 43 0 63 23 46 53 -7 14 -5 24 8 38 21 23 8 25 -18 2 -17 -15 -21
-15 -54 1 -31 14 -34 19 -23 33 12 14 11 15 -11 8 -19 -5 -11 7 38 57 34 35
62 68 62 73 0 5 -29 -19 -64 -54 -43 -42 -66 -59 -71 -51 -10 16 133 160 158
160 31 0 85 -62 92 -106 10 -58 13 -64 33 -64 26 0 38 17 47 65 10 56 40 111
92 166 107 115 250 154 394 110z m-751 -226 c-65 -65 -83 -70 -60 -15 15 37
64 69 120 79 2 1 -25 -28 -60 -64z m-195 -426 c-134 -134 -151 -147 -159 -129
-8 17 7 37 107 137 65 64 117 119 117 122 0 3 -52 -46 -115 -109 -84 -83 -115
-109 -115 -95 0 28 179 205 211 209 13 2 31 6 39 9 22 9 54 14 60 10 2 -2 -63
-71 -145 -154z m-25 108 c0 -1 -28 -29 -61 -62 -34 -33 -57 -51 -51 -39 15 30
112 117 112 101z"/>
<path d="M8160 10203 l-165 -168 170 165 c93 91 171 166 174 168 2 1 0 2 -5 2
-5 0 -83 -75 -174 -167z"/>
<path d="M8172 10089 c-46 -44 -82 -82 -80 -84 2 -3 42 34 88 80 47 47 82 85
80 85 -3 0 -43 -36 -88 -81z"/>
<path d="M8345 9828 c-99 -100 -177 -180 -173 -178 9 6 317 312 342 339 11 11
17 21 15 21 -2 0 -85 -82 -184 -182z"/>
<path d="M8745 9718 c-55 -55 -89 -92 -75 -82 28 22 186 184 179 184 -2 0 -49
-46 -104 -102z"/>
<path d="M4815 10820 c-3 -5 -14 -10 -23 -10 -21 0 -117 -97 -161 -162 -84
-125 -127 -309 -118 -503 12 -266 82 -520 171 -622 72 -83 222 -130 375 -119
36 3 113 8 171 11 133 8 276 28 456 66 230 47 261 41 349 -76 88 -118 160
-169 278 -201 53 -14 163 -19 191 -8 24 9 19 46 -10 85 -57 76 -88 166 -77
222 9 46 73 103 135 122 29 8 118 20 198 25 255 17 345 64 401 210 30 79 30
194 -1 521 -29 303 -39 350 -82 397 -50 53 -36 52 -1184 52 -698 0 -1065 -3
-1069 -10z m2165 -73 c67 -23 72 -45 109 -487 23 -266 18 -344 -24 -416 -51
-87 -114 -111 -320 -123 -215 -13 -304 -47 -370 -140 -27 -38 -30 -51 -29
-112 0 -59 5 -79 36 -139 36 -69 36 -70 13 -70 -44 0 -150 40 -197 75 -25 18
-74 70 -107 113 -73 97 -132 132 -220 132 l-56 0 45 43 c25 24 51 52 59 63 8
10 -17 -11 -55 -48 -103 -100 -113 -83 -11 20 48 48 87 92 87 97 0 5 -46 -36
-102 -91 -57 -56 -114 -104 -127 -107 -17 -4 27 46 139 158 91 91 160 165 155
165 -5 0 -84 -75 -176 -166 -136 -136 -172 -167 -204 -174 -38 -9 -37 -7 68
98 59 59 107 112 107 117 0 5 -56 -46 -123 -113 -71 -70 -132 -122 -143 -122
-13 0 41 60 161 180 99 99 175 180 170 180 -6 0 -93 -83 -194 -184 -154 -154
-189 -185 -217 -188 -19 -2 -34 -1 -34 3 0 4 32 36 70 73 39 36 67 66 62 66
-4 0 -41 -34 -82 -75 -43 -44 -83 -75 -95 -75 -14 0 20 39 120 140 77 77 135
140 130 140 -6 0 -75 -65 -155 -145 -131 -131 -148 -145 -180 -145 l-34 0 64
68 65 67 -75 -72 c-42 -40 -84 -73 -95 -73 -14 0 18 38 110 130 71 71 127 132
124 134 -3 3 -65 -55 -139 -129 -122 -122 -138 -135 -170 -135 l-34 0 69 70
c38 39 65 70 59 70 -5 0 -41 -31 -79 -70 -41 -41 -78 -70 -90 -70 -15 0 13 33
102 123 68 67 126 126 130 132 20 25 -47 -39 -149 -142 -94 -95 -117 -113
-142 -113 -29 0 -25 6 89 120 65 65 117 122 114 124 -3 3 -61 -51 -129 -119
-77 -77 -132 -125 -145 -125 -14 0 35 55 165 185 102 102 180 185 175 185 -6
0 -93 -83 -193 -183 -155 -156 -187 -183 -208 -179 -13 2 -24 7 -24 11 0 3 47
53 105 111 58 58 105 109 105 115 0 5 -51 -41 -113 -103 -100 -100 -137 -128
-137 -105 0 4 73 81 162 170 90 90 158 163 153 163 -6 0 -82 -72 -170 -160
-88 -88 -165 -160 -172 -160 -35 0 -17 31 71 119 53 53 96 101 96 106 0 5 -47
-37 -104 -94 -69 -69 -106 -99 -111 -91 -5 8 45 65 141 161 82 82 144 149 139
149 -5 0 -74 -64 -153 -142 -137 -137 -144 -142 -158 -123 -14 19 -8 26 101
133 64 63 115 116 113 118 -2 2 -53 -46 -113 -106 -60 -61 -113 -110 -117
-110 -26 0 9 42 147 180 85 85 155 159 155 165 0 5 -71 -61 -158 -148 -87 -87
-161 -155 -165 -151 -19 19 5 51 143 189 83 82 150 154 150 160 0 5 -69 -59
-154 -144 -103 -103 -156 -149 -161 -141 -5 8 62 82 191 213 110 111 170 174
135 142 -36 -33 -125 -120 -198 -193 -73 -73 -133 -131 -134 -130 0 2 -8 40
-18 85 l-17 82 118 118 c65 65 118 122 118 128 0 5 -54 -44 -120 -110 -87 -86
-120 -114 -120 -100 0 13 58 78 155 175 85 85 152 156 149 159 -2 3 -74 -64
-159 -149 -155 -155 -155 -155 -155 -120 0 30 9 44 50 85 28 27 50 54 50 59 0
6 -25 -14 -55 -44 -43 -43 -55 -50 -55 -34 0 11 37 56 90 109 49 49 87 91 84
94 -2 3 -43 -33 -89 -79 -75 -74 -85 -82 -85 -60 0 19 26 51 95 120 52 52 92
96 89 99 -2 3 -45 -35 -94 -84 -67 -66 -90 -84 -90 -70 0 13 48 69 125 145 69
69 125 129 125 135 0 5 -54 -44 -120 -110 -104 -103 -120 -116 -120 -94 0 16
14 39 40 64 46 45 45 63 -1 19 l-31 -29 7 25 c4 14 37 56 74 95 60 64 61 65 9
16 -100 -95 -75 -46 33 66 57 60 77 83 45 53 -33 -30 -70 -68 -84 -83 -13 -15
-27 -26 -29 -23 -11 10 43 84 111 154 l70 72 1056 -1 c790 0 1064 -3 1090 -12z"/>
<path d="M4745 10038 c-72 -72 -121 -125 -110 -117 32 23 253 249 244 249 -2
0 -63 -59 -134 -132z"/>
<path d="M4715 9948 l-90 -93 93 90 c85 83 97 95 89 95 -1 0 -43 -42 -92 -92z"/>
<path d="M7595 9790 c3 -5 8 -10 11 -10 2 0 4 5 4 10 0 6 -5 10 -11 10 -5 0
-7 -4 -4 -10z"/>
<path d="M9999 8416 c-2 -2 -35 -6 -73 -10 -129 -12 -421 -57 -596 -92 -426
-85 -847 -209 -1233 -363 -169 -68 -219 -94 -262 -136 -59 -60 -69 -93 -69
-240 l-1 -130 71 -175 c107 -261 236 -521 274 -553 37 -31 76 -34 141 -12 62
22 84 13 113 -43 30 -58 92 -117 155 -145 64 -29 189 -33 256 -10 45 16 50 21
50 47 0 24 -8 34 -44 55 -92 54 -103 108 -26 142 25 11 173 39 356 69 501 79
730 121 785 141 111 42 172 112 215 249 89 283 199 837 199 1000 -1 146 -70
210 -228 210 -43 0 -81 -2 -83 -4z m152 -76 c46 -13 71 -40 78 -88 26 -150
-167 -1036 -247 -1137 -34 -42 -81 -74 -137 -91 -47 -14 -297 -58 -595 -104
-74 -12 -144 -24 -155 -27 -17 -4 -15 0 10 28 l30 34 -35 -31 c-37 -32 -70
-49 -70 -35 0 4 25 32 55 60 30 29 55 55 55 59 0 3 -30 -23 -67 -60 -38 -36
-79 -69 -93 -73 -17 -5 15 33 103 122 70 70 127 133 127 138 0 5 -64 -55 -143
-133 -129 -128 -147 -142 -178 -142 l-34 1 73 69 c39 39 72 73 72 77 0 4 -37
-29 -82 -73 -46 -45 -94 -84 -107 -87 -17 -4 19 38 119 138 79 79 142 147 139
149 -3 3 -74 -64 -159 -149 -85 -85 -160 -155 -165 -155 -6 0 -32 -13 -57 -29
-36 -23 -50 -39 -59 -70 -7 -24 -31 -58 -59 -86 -51 -50 -63 -51 -102 -8 -16
17 -8 27 170 206 103 103 185 187 182 187 -2 0 -87 -82 -188 -182 -174 -174
-184 -182 -198 -163 -13 18 -9 25 73 107 48 48 85 88 82 88 -4 0 -43 -37 -87
-82 -65 -67 -84 -80 -94 -70 -10 10 13 38 117 145 l130 132 -130 -127 c-121
-119 -131 -126 -150 -112 -18 14 -17 16 25 59 24 25 40 45 34 45 -5 0 -28 -18
-49 -40 -21 -22 -48 -40 -59 -40 -15 0 6 27 84 105 58 58 100 105 95 105 -6 0
-57 -47 -114 -104 -57 -57 -113 -106 -125 -109 -12 -2 -30 -8 -41 -12 -11 -4
27 41 85 101 l105 109 -115 -112 c-103 -101 -140 -129 -140 -105 0 4 72 79
160 167 88 88 160 164 160 170 0 5 -76 -66 -169 -159 l-169 -169 -21 44 -21
43 115 116 c63 63 115 120 115 125 0 5 -54 -44 -119 -109 -108 -108 -120 -117
-129 -99 -9 17 -5 26 28 58 22 22 40 44 40 49 0 6 -18 -8 -40 -29 -26 -26 -43
-36 -50 -29 -6 6 19 39 75 94 47 47 85 89 85 95 0 5 -38 -29 -85 -75 -69 -69
-87 -82 -95 -70 -16 24 -12 32 37 82 26 26 44 48 41 48 -3 0 -27 -21 -52 -47
-39 -41 -46 -45 -52 -29 -5 14 15 40 87 114 l94 97 -96 -94 c-88 -85 -98 -92
-107 -74 -9 17 1 31 79 109 49 49 89 93 89 99 0 5 -42 -32 -94 -84 -65 -65
-95 -88 -99 -78 -3 9 43 62 129 148 74 73 134 138 134 144 0 5 -62 -53 -139
-129 -135 -135 -138 -137 -145 -111 -6 23 -1 34 28 64 49 50 46 65 -3 17 -27
-26 -41 -34 -46 -26 -5 8 23 43 74 94 44 45 81 86 81 91 0 5 -38 -28 -84 -74
-78 -77 -84 -82 -91 -61 -6 19 4 34 64 91 39 38 71 72 71 76 0 4 -33 -25 -74
-66 -52 -51 -75 -68 -79 -58 -3 9 36 55 109 128 63 62 114 118 114 124 0 5
-52 -42 -115 -105 -93 -92 -117 -112 -125 -100 -14 22 -12 41 8 64 17 21 17
21 -5 3 -15 -13 -23 -15 -28 -7 -5 7 17 37 54 74 33 34 61 66 61 71 0 5 -29
-20 -65 -55 -59 -58 -65 -62 -65 -39 0 17 20 45 70 94 38 38 67 71 64 74 -2 3
-34 -24 -69 -59 -50 -50 -65 -60 -65 -45 0 12 40 60 100 120 55 55 100 104
100 110 0 5 -45 -35 -100 -90 -88 -88 -100 -97 -100 -74 0 14 9 34 20 44 23
21 28 44 5 25 -12 -10 -15 -9 -15 4 0 26 76 102 125 125 25 11 120 50 212 85
598 229 1191 370 1843 439 69 7 96 7 131 -3z m-1521 -1683 c0 -20 -67 -80 -80
-72 -8 5 0 20 26 46 40 41 54 48 54 26z m20 -42 c19 -22 -12 -54 -45 -47 -31
5 -31 9 -3 39 25 27 31 28 48 8z m40 -46 c0 -5 -10 -9 -21 -9 -18 0 -19 2 -9
15 12 15 30 12 30 -6z"/>
<path d="M8185 6909 c-39 -39 -65 -70 -60 -68 11 4 141 139 134 139 -3 0 -36
-32 -74 -71z"/>
<path d="M8617 6776 c-174 -177 -173 -182 1 -11 78 77 142 141 142 142 0 12
-32 -17 -143 -131z"/>
<path d="M5901 8316 c-6 -7 -64 -129 -130 -270 -65 -141 -121 -259 -124 -262
-3 -3 -55 10 -115 30 -171 54 -400 96 -523 96 -73 0 -78 -14 -41 -115 41 -114
89 -198 173 -301 38 -48 69 -92 69 -98 0 -6 -113 -47 -250 -90 -138 -44 -255
-85 -261 -92 -34 -41 9 -62 268 -130 79 -20 146 -44 157 -54 18 -18 18 -20
-24 -97 -24 -43 -69 -121 -101 -174 -88 -148 -90 -153 -75 -174 15 -21 33 -18
360 60 82 19 150 34 151 32 1 -1 34 -112 74 -247 41 -135 79 -248 85 -252 27
-18 44 -6 71 55 15 34 39 85 51 113 13 28 24 54 24 57 0 4 13 35 29 69 16 35
31 71 35 82 5 14 19 -5 57 -80 55 -107 164 -270 192 -288 12 -8 22 -8 35 0 17
11 27 95 46 408 4 55 8 101 9 102 2 2 48 -19 102 -46 55 -27 137 -59 183 -72
126 -33 125 -38 57 217 -31 114 -55 209 -53 210 2 2 136 46 298 99 162 53 302
104 310 112 25 24 0 48 -66 61 -32 6 -167 33 -299 58 -132 26 -246 53 -254 60
-12 11 3 59 96 312 61 164 108 303 106 310 -11 29 -48 16 -261 -92 -125 -63
-230 -111 -233 -107 -3 4 -43 115 -88 246 -45 132 -87 246 -93 253 -14 17 -33
17 -47 -1z m63 -244 c81 -245 119 -344 133 -349 8 -3 105 40 215 97 109 56
201 100 203 98 2 -2 -34 -107 -81 -233 -103 -280 -109 -336 -37 -363 30 -11
286 -65 396 -83 37 -6 67 -13 67 -14 0 -2 -113 -41 -250 -87 -283 -93 -274
-86 -244 -182 l18 -57 -82 -82 c-77 -77 -83 -81 -99 -64 -16 16 -15 18 12 47
16 16 26 30 22 30 -4 0 -20 -14 -35 -30 -20 -22 -31 -28 -42 -20 -12 7 1 25
67 90 44 44 78 80 74 80 -3 0 -40 -34 -81 -75 -53 -54 -80 -74 -93 -71 -31 8
-46 -4 -53 -42 -5 -29 -25 -56 -87 -119 -45 -46 -85 -83 -88 -83 -4 0 -9 10
-13 22 -4 18 6 35 49 78 30 31 55 60 55 65 0 5 -26 -17 -59 -49 -40 -39 -61
-54 -66 -46 -5 8 30 50 96 116 57 57 101 104 98 104 -3 0 -49 -44 -102 -97
-96 -98 -96 -98 -112 -75 -22 30 -51 28 -69 -5 -8 -16 -57 -70 -108 -121 l-94
-92 -13 46 -14 46 62 62 c33 34 61 66 61 71 0 5 -29 -19 -64 -54 -45 -44 -65
-59 -69 -48 -3 9 33 52 99 118 57 57 104 108 104 114 0 5 -46 -36 -103 -93
-56 -56 -106 -102 -110 -102 -4 0 -7 10 -7 23 0 15 23 45 65 87 35 35 63 65
61 67 -2 2 -32 -26 -67 -62 -50 -53 -65 -63 -71 -50 -7 11 16 41 96 122 59 58
106 109 106 112 0 3 -47 -41 -105 -99 -57 -57 -106 -102 -108 -99 -1 2 -9 12
-16 22 -12 15 -11 20 4 37 10 11 14 20 8 20 -5 0 -19 -11 -31 -25 -12 -14 -32
-25 -44 -25 -19 0 -7 16 63 85 47 47 83 85 80 85 -4 0 -47 -41 -96 -90 -61
-61 -101 -94 -125 -100 -50 -14 -58 -12 -35 8 11 10 36 36 55 58 19 21 6 11
-30 -22 -36 -34 -76 -65 -90 -69 -17 -5 14 32 100 119 69 69 120 126 115 126
-5 0 -68 -58 -140 -130 -90 -89 -139 -130 -154 -130 -12 0 -32 -5 -44 -11 -12
-6 38 49 111 123 72 73 132 138 132 143 0 5 -67 -57 -148 -138 -82 -81 -154
-147 -160 -147 -13 0 -16 13 -5 24 4 3 8 13 9 22 6 38 90 156 161 226 43 42
103 102 133 135 30 32 -1 4 -69 -62 -176 -171 -133 -95 52 93 78 78 137 142
132 142 -5 0 -61 -51 -124 -112 -62 -62 -109 -104 -103 -93 6 12 7 26 1 37 -6
10 -5 19 1 23 5 3 10 11 10 17 0 6 -8 4 -18 -5 -19 -17 -42 -23 -42 -10 0 4
30 38 67 75 37 38 63 68 57 68 -5 0 -40 -31 -78 -69 -49 -49 -73 -67 -87 -64
-10 3 -19 8 -19 11 0 4 35 43 77 87 l78 80 -87 -84 c-66 -64 -90 -82 -105 -77
-15 6 -2 23 81 104 54 53 113 104 130 112 49 24 45 51 -13 100 -28 24 -58 54
-67 67 -15 24 -15 26 15 57 45 46 38 57 -8 12 l-38 -38 -23 32 c-17 23 -20 34
-11 43 6 6 11 16 11 21 0 6 -5 5 -12 -2 -7 -7 -17 -12 -22 -12 -6 0 20 30 57
68 37 37 67 72 67 77 0 5 -31 -21 -69 -59 -46 -46 -71 -64 -76 -56 -5 8 20 40
67 87 l75 75 89 -21 c49 -12 137 -37 196 -57 96 -31 111 -34 134 -22 19 10 48
61 124 224 54 116 101 221 105 233 3 11 9 21 13 21 4 0 25 -53 46 -118z m-776
-249 l54 -6 -68 -68 c-38 -38 -71 -69 -75 -69 -7 0 -59 112 -59 128 0 19 65
25 148 15z m-28 -597 c-84 -84 -98 -94 -123 -89 -15 3 -27 9 -25 13 2 5 31 38
66 73 57 61 114 94 162 96 8 1 -28 -41 -80 -93z m-104 -12 c-44 -43 -73 -63
-83 -59 -12 4 -3 18 38 60 47 48 63 58 104 64 5 0 -21 -29 -59 -65z m-65 -8
c-30 -30 -49 -42 -62 -39 -10 3 -19 9 -19 12 0 12 44 49 70 60 50 20 53 10 11
-33z m-76 -6 c-10 -11 -27 -20 -37 -20 -24 0 -14 18 16 30 34 14 40 11 21 -10z
m1485 -362 c6 -24 18 -66 26 -95 19 -68 18 -83 -6 -83 -17 0 -97 27 -109 37
-3 2 11 19 29 38 19 19 29 35 24 35 -6 0 -23 -13 -39 -30 -32 -34 -43 -36 -71
-16 -18 14 -16 18 51 85 38 39 73 71 77 71 4 0 12 -19 18 -42z m-401 -244
c-41 -41 -77 -74 -81 -74 -24 0 1 39 70 110 66 69 77 78 80 59 3 -16 -16 -41
-69 -95z m66 14 c-4 -21 -27 -54 -61 -88 -53 -53 -56 -54 -70 -35 -13 18 -10
24 53 87 37 37 71 68 76 68 5 0 6 -15 2 -32z m-325 -23 c-22 -57 -45 -92 -88
-137 -26 -27 -49 -48 -53 -48 -4 0 -11 10 -14 21 -6 18 8 37 76 105 46 46 85
84 86 84 1 0 -2 -11 -7 -25z m275 -114 c-37 -35 -49 -41 -56 -30 -6 10 6 28
44 66 46 46 52 50 55 31 3 -15 -10 -35 -43 -67z m45 11 c0 -14 -76 -83 -83
-75 -4 4 9 24 30 45 36 37 53 47 53 30z m-382 -39 c-13 -31 -57 -83 -70 -83
-19 0 -5 27 34 67 23 24 43 43 45 43 1 0 -3 -12 -9 -27z m354 -55 c-33 -34
-48 -10 -15 24 23 24 29 27 31 12 2 -9 -5 -25 -16 -36z m18 -44 c0 -31 -2 -35
-15 -24 -18 15 -19 32 -3 48 17 17 18 16 18 -24z m-413 -4 c-7 -19 -15 -26
-21 -20 -6 6 -3 17 9 30 24 27 25 25 12 -10z"/>
<path d="M5340 6990 c-41 -43 -122 -127 -180 -187 -58 -59 -21 -25 83 77 103
102 187 186 187 187 0 11 -25 -11 -90 -77z"/>
<path d="M5728 6663 c-87 -86 -157 -158 -155 -159 2 -2 75 69 162 156 88 88
158 160 155 160 -3 0 -76 -71 -162 -157z"/>
<path d="M6320 6773 l-55 -58 58 55 c31 30 57 56 57 57 0 8 -10 -1 -60 -54z"/>
<path d="M2520 8057 c-125 -43 -230 -125 -288 -228 l-29 -49 -22 24 c-38 40
-133 85 -209 98 -61 10 -78 9 -132 -6 -106 -29 -173 -89 -216 -191 -24 -58
-23 -159 4 -218 l21 -48 -27 -10 c-146 -52 -232 -186 -203 -315 16 -68 89
-153 156 -181 25 -10 45 -22 45 -26 0 -32 -209 -247 -240 -247 -17 0 -23 -49
-9 -66 27 -33 250 8 387 71 l72 34 22 -46 c28 -59 111 -143 169 -171 140 -67
280 -41 374 70 l28 33 50 -48 c117 -116 298 -152 441 -89 56 25 132 95 157
145 l20 38 35 -30 c94 -83 248 -100 366 -40 134 68 197 216 151 352 l-20 57
26 7 c81 19 155 85 176 157 20 67 19 95 -7 163 -42 113 -162 202 -320 237
l-27 6 24 43 c46 84 41 157 -17 223 -82 93 -217 107 -311 32 -21 -16 -39 -28
-41 -27 -84 135 -182 213 -315 253 -81 24 -211 21 -291 -7z m300 -83 c57 -22
120 -65 166 -112 39 -39 94 -143 94 -178 0 -32 23 -56 50 -52 21 2 26 10 32
52 8 54 35 91 85 112 44 19 69 18 118 -6 111 -54 95 -190 -28 -230 -23 -7 -43
-21 -49 -36 -16 -35 4 -54 61 -54 76 -1 194 -26 247 -53 95 -49 154 -133 154
-221 0 -37 -6 -52 -32 -82 -53 -60 -122 -78 -194 -52 -62 22 -88 -33 -35 -71
63 -45 98 -145 79 -221 -14 -56 -78 -125 -136 -147 -65 -25 -156 -23 -208 5
-53 27 -103 77 -121 119 -16 41 -58 47 -72 11 -12 -30 -259 -273 -268 -264 -4
4 65 79 152 166 88 88 155 160 150 160 -6 0 -82 -72 -170 -160 l-160 -161 -40
7 c-22 3 -44 9 -49 11 -4 3 59 72 140 154 82 82 144 149 139 149 -6 0 -75 -65
-155 -145 -129 -129 -170 -162 -170 -138 0 4 89 98 198 207 108 110 186 191
173 181 -13 -11 -102 -100 -199 -197 -97 -98 -181 -178 -187 -178 -5 0 -17 5
-25 10 -12 8 -2 22 53 77 37 38 67 73 67 78 0 5 -33 -23 -74 -64 -50 -49 -76
-69 -81 -61 -5 8 35 55 111 131 65 65 114 119 109 119 -5 0 -62 -52 -126 -116
-101 -101 -117 -113 -129 -99 -11 13 -10 19 5 35 19 21 8 29 -12 9 -6 -6 -17
-8 -23 -4 -8 5 11 31 56 76 38 38 64 69 58 69 -5 0 -36 -27 -69 -60 l-59 -60
-14 25 c-7 15 -21 25 -34 25 -21 0 -20 1 7 30 16 16 26 32 24 35 -3 2 -68 -59
-144 -135 -118 -118 -144 -140 -170 -140 -28 0 -22 8 100 130 71 72 125 130
120 130 -6 0 -66 -56 -134 -124 l-124 -125 -39 20 c-21 11 -38 23 -38 27 0 3
44 51 97 104 54 54 93 98 88 98 -6 0 -53 -43 -105 -95 -63 -63 -98 -91 -104
-85 -7 7 38 59 134 157 80 81 111 116 70 78 -41 -39 -107 -103 -147 -144 -70
-71 -74 -74 -87 -55 -14 18 -9 25 62 97 42 42 72 77 66 77 -5 0 -41 -31 -79
-70 -46 -47 -73 -66 -79 -60 -7 7 29 51 109 132 66 67 109 113 96 103 -13 -11
-64 -62 -114 -112 -50 -51 -94 -93 -98 -93 -4 0 -11 10 -14 21 -6 18 8 37 76
105 46 46 79 84 74 84 -6 0 -44 -34 -85 -75 -50 -50 -78 -71 -84 -65 -7 7 32
53 119 140 71 72 125 130 120 130 -5 0 -68 -58 -140 -129 -85 -84 -151 -140
-190 -161 -58 -32 -55 -27 125 154 102 102 182 186 179 186 -3 0 -88 -84 -190
-186 -159 -160 -259 -244 -259 -217 0 4 116 125 257 268 l258 260 -275 -272
c-220 -216 -282 -273 -309 -278 l-34 -7 54 63 c30 35 120 131 202 213 81 83
147 153 147 155 0 3 -57 -50 -126 -119 -95 -94 -122 -116 -109 -90 9 19 83
101 163 183 81 81 142 147 137 147 -5 0 -71 -62 -147 -137 -120 -120 -139
-135 -153 -123 -14 12 0 29 127 157 78 79 138 143 133 143 -5 0 -76 -66 -156
-146 -95 -95 -151 -144 -159 -139 -8 5 54 74 186 209 l199 201 -200 -197
c-110 -109 -207 -198 -215 -198 -8 0 -22 5 -30 10 -12 8 10 34 110 135 69 69
120 125 115 125 -5 0 -64 -55 -131 -121 -79 -78 -126 -119 -134 -114 -8 5 45
66 161 184 l174 176 -170 -168 c-94 -92 -175 -167 -182 -167 -36 0 -2 44 171
218 105 105 186 192 181 192 -6 0 -93 -83 -195 -185 -119 -120 -187 -180 -192
-173 -4 8 78 98 225 245 128 129 234 237 237 241 2 4 -39 -35 -92 -87 -84 -82
-99 -93 -113 -81 -14 12 -13 16 11 42 15 15 25 28 21 28 -3 0 -15 -10 -27 -22
-16 -17 -23 -19 -32 -10 -10 10 4 29 62 90 l75 77 -76 -74 c-42 -40 -79 -69
-82 -64 -4 6 49 65 117 132 68 66 121 121 117 121 -3 0 -58 -52 -121 -115 -63
-63 -118 -115 -122 -115 -25 0 7 40 131 164 l140 140 40 -13 c65 -19 123 -69
154 -134 25 -51 31 -58 54 -55 23 3 28 10 40 60 18 81 47 133 107 193 119 119
305 160 456 99z m-1000 -279 l-135 -136 -3 33 c-7 67 37 157 94 194 38 25 95
43 139 44 l40 0 -135 -135z m-110 -333 c0 -4 -49 -57 -110 -117 -105 -104
-110 -108 -110 -80 0 25 15 46 83 112 45 44 89 83 97 86 23 8 40 8 40 -1z
m-140 -77 c-35 -35 -66 -63 -68 -60 -7 7 37 63 76 95 63 52 59 33 -8 -35z
m709 -680 c-51 -53 -90 -85 -103 -85 -16 0 4 24 79 100 64 65 101 95 103 86 2
-9 -34 -54 -79 -101z m735 62 c-10 -29 -34 -64 -62 -92 -66 -65 -76 -55 -12
12 42 44 37 40 -21 -15 -42 -39 -85 -72 -95 -72 -13 0 17 36 91 110 60 60 110
108 112 106 2 -1 -4 -24 -13 -49z m-658 -25 c-11 -34 -46 -72 -87 -92 -21 -11
-42 -20 -46 -20 -4 0 24 31 62 70 38 38 71 68 73 65 2 -2 1 -12 -2 -23z"/>
<path d="M2918 6733 c-114 -115 -211 -212 -215 -218 -4 -5 90 87 210 205 201
199 221 220 214 220 -1 0 -95 -93 -209 -207z"/>
<path d="M2217 6738 c-92 -94 -166 -172 -164 -174 1 -2 81 75 177 171 96 96
170 174 165 174 -6 -1 -86 -78 -178 -171z"/>
<path d="M9010 5553 c-530 -52 -900 -304 -1021 -693 -19 -59 -23 -98 -23 -185
0 -124 21 -213 77 -320 44 -84 164 -201 253 -247 333 -174 919 -121 1269 115
229 154 349 350 362 587 23 421 -326 755 -782 748 -55 -1 -116 -3 -135 -5z
m345 -87 c143 -39 291 -134 371 -237 161 -210 177 -482 39 -704 -50 -80 -164
-196 -245 -247 -68 -44 -169 -95 -152 -77 27 29 10 31 -20 2 -18 -18 -46 -37
-63 -43 -23 -9 -8 11 70 89 55 56 95 101 90 101 -5 0 -59 -49 -120 -110 -62
-60 -118 -110 -126 -110 -7 0 49 64 126 142 77 78 132 136 123 129 -10 -7 -76
-73 -149 -146 -76 -77 -141 -135 -155 -138 -13 -2 -24 -1 -24 2 0 3 77 83 171
176 93 94 184 186 202 205 17 19 -67 -62 -188 -181 -180 -177 -226 -218 -252
-221 -40 -5 -41 3 -5 35 15 13 83 82 152 153 114 117 110 114 -40 -32 -91 -89
-176 -164 -190 -167 -16 -4 50 68 200 218 124 124 220 225 215 225 -6 0 -111
-101 -235 -225 -207 -207 -228 -225 -260 -225 l-35 0 115 115 c63 63 110 115
105 115 -5 0 -64 -54 -130 -120 -109 -108 -145 -135 -145 -113 0 4 78 86 173
183 94 96 169 172 165 170 -4 -3 -87 -85 -186 -182 -128 -126 -185 -176 -198
-173 -10 2 -23 4 -29 4 -5 1 33 44 85 96 52 52 92 97 89 99 -3 3 -50 -40 -104
-94 -60 -60 -108 -100 -120 -100 -14 0 26 46 140 163 l160 162 -165 -162
c-151 -148 -167 -161 -193 -156 -29 6 -28 6 59 94 49 49 84 89 79 89 -5 0 -51
-41 -101 -91 -59 -58 -96 -89 -104 -84 -8 5 35 55 131 151 79 79 141 146 138
148 -3 3 -72 -61 -153 -143 -111 -111 -153 -147 -167 -144 -11 3 -19 8 -19 12
0 3 57 64 127 136 l128 130 -137 -134 c-106 -104 -140 -132 -154 -127 -15 6
16 41 169 193 103 103 185 188 184 189 -2 2 -88 -82 -192 -186 -169 -170 -191
-188 -209 -178 -12 6 -23 12 -25 15 -3 2 44 54 105 116 l109 112 -117 -115
c-78 -76 -121 -111 -128 -104 -6 6 44 63 150 169 88 88 160 164 160 170 0 5
-76 -66 -168 -158 -157 -157 -169 -167 -187 -153 -19 14 -16 19 80 118 l100
103 -106 -104 c-72 -69 -109 -99 -114 -91 -5 8 45 65 141 161 82 82 144 149
139 149 -5 0 -76 -66 -157 -147 -140 -140 -149 -147 -165 -130 -17 16 -11 23
105 140 67 67 122 127 122 132 0 5 -58 -48 -129 -119 -86 -86 -131 -124 -136
-116 -5 8 54 74 166 188 96 97 171 174 167 172 -4 -3 -83 -81 -176 -173 -149
-148 -170 -166 -182 -152 -12 14 8 38 158 188 95 95 172 177 172 182 0 5 -78
-68 -174 -164 -113 -113 -178 -171 -186 -166 -8 5 62 82 211 231 123 123 219
224 214 224 -5 0 -107 -97 -226 -216 -208 -208 -216 -214 -226 -191 -10 22 -3
32 113 148 68 68 124 128 124 134 0 5 -58 -49 -130 -120 -92 -92 -130 -124
-130 -110 0 12 64 84 167 187 92 93 163 168 158 168 -6 0 -82 -72 -169 -159
-88 -88 -163 -158 -168 -155 -23 14 6 53 150 199 l157 160 -155 -153 c-85 -83
-159 -152 -163 -152 -30 0 20 61 186 228 106 105 190 192 187 192 -3 0 -88
-83 -190 -185 -102 -102 -187 -185 -190 -185 -12 0 -10 69 2 77 7 5 49 47 93
93 l80 85 -93 -90 c-69 -67 -92 -85 -92 -70 0 13 48 69 125 145 69 69 125 129
125 135 0 5 -55 -44 -121 -110 -115 -113 -121 -118 -115 -85 5 27 31 59 121
147 63 63 115 117 115 121 0 4 -50 -43 -111 -103 -78 -78 -109 -103 -104 -85
4 14 70 88 146 165 76 77 139 145 139 150 0 5 -56 -46 -125 -115 -69 -69 -125
-121 -125 -117 0 22 97 154 155 212 164 165 391 266 695 310 119 18 323 13
405 -9z"/>
<path d="M2663 5486 c-66 -21 -127 -62 -172 -112 -23 -26 -41 -51 -41 -57 0
-5 -21 10 -48 35 -136 127 -338 143 -471 38 -87 -69 -132 -161 -133 -267 l0
-63 -37 0 c-144 0 -342 -133 -406 -273 -62 -134 -50 -290 33 -422 31 -50 114
-131 155 -151 18 -9 34 -18 35 -19 2 -2 -6 -17 -19 -34 -27 -36 -37 -122 -20
-173 14 -43 81 -111 135 -137 56 -28 145 -40 248 -35 75 4 126 14 253 49 16 4
28 -7 60 -56 141 -216 459 -346 732 -300 113 20 125 57 30 96 -139 56 -216
174 -208 316 1 26 2 27 44 17 23 -6 105 -11 182 -12 122 -1 149 2 206 22 104
36 180 97 225 182 26 50 26 162 -2 216 l-20 42 48 5 c127 15 284 136 327 252
26 69 31 189 11 251 -49 152 -146 254 -289 307 -44 16 -80 20 -166 20 -109 1
-136 -5 -256 -57 -13 -6 -17 2 -22 44 -13 108 -82 207 -181 257 -60 31 -170
40 -233 19z m203 -84 c109 -56 166 -183 134 -297 -11 -41 -11 -48 3 -63 15
-15 20 -13 61 17 188 134 422 131 570 -9 60 -56 102 -134 117 -215 12 -66 -6
-152 -45 -213 -72 -115 -225 -180 -370 -159 -52 8 -62 7 -73 -8 -14 -21 -1
-55 22 -55 25 0 93 -69 106 -107 37 -113 -50 -234 -201 -281 -60 -18 -229 -23
-314 -9 l-48 9 28 29 c38 39 18 37 -23 -3 -56 -54 -50 -20 7 37 30 30 50 55
44 55 -6 0 -107 -97 -225 -215 -117 -118 -216 -215 -219 -215 -3 0 -18 12 -34
26 l-29 26 189 189 c104 104 184 189 179 189 -6 0 -93 -83 -195 -185 -125
-125 -188 -181 -195 -174 -6 6 67 86 226 245 129 129 234 236 233 237 -2 2
-109 -103 -239 -232 -222 -222 -236 -234 -249 -215 -14 18 -8 26 87 122 56 56
97 102 92 102 -6 0 -53 -43 -105 -95 -52 -52 -98 -95 -102 -95 -25 0 7 40 132
165 77 77 140 144 140 150 0 5 -67 -57 -149 -139 -134 -134 -150 -146 -156
-126 -5 17 1 30 29 59 49 50 46 65 -3 17 -24 -23 -44 -35 -51 -31 -8 5 18 37
76 96 49 49 84 89 79 89 -6 0 -48 -38 -94 -84 -46 -47 -96 -87 -110 -91 -14
-3 -35 -9 -46 -12 -17 -4 -15 0 10 28 29 33 29 33 -10 -3 -22 -20 -53 -42 -70
-48 -23 -8 -6 13 74 94 58 58 103 108 100 110 -3 3 -56 -46 -119 -109 -95 -96
-120 -115 -145 -115 -28 0 -25 5 75 105 58 58 100 105 95 105 -6 0 -60 -49
-120 -110 -67 -67 -117 -110 -130 -110 -14 0 31 51 155 177 96 98 172 175 168
173 -4 -3 -85 -83 -181 -178 -157 -155 -178 -172 -206 -170 -17 1 -31 5 -31 7
0 3 46 52 102 108 57 57 98 103 93 103 -6 0 -57 -47 -115 -105 -93 -94 -130
-121 -130 -97 0 4 72 79 160 167 87 87 158 160 156 162 -1 1 -76 -71 -167
-162 -132 -133 -168 -164 -184 -159 -11 4 -22 8 -24 11 -3 2 42 52 100 110 57
59 93 98 80 88 -13 -11 -60 -57 -106 -102 -45 -46 -86 -83 -92 -83 -5 0 -21
13 -36 28 l-27 28 125 124 c69 69 125 129 125 135 0 5 -58 -48 -129 -119 -88
-88 -130 -123 -134 -113 -3 9 54 73 164 183 92 92 166 170 163 173 -2 3 -79
-69 -171 -159 -152 -152 -165 -162 -159 -131 7 39 30 69 64 82 12 5 25 17 29
26 3 10 53 67 112 128 l106 110 -107 -105 c-83 -80 -110 -102 -120 -92 -9 9
23 46 139 162 83 82 148 150 145 150 -4 0 -75 -68 -159 -152 -150 -150 -152
-152 -180 -139 l-28 13 25 22 c14 13 50 49 80 82 40 43 33 38 -25 -18 -73 -70
-105 -92 -105 -70 0 4 56 63 125 132 68 68 122 126 119 129 -2 3 -63 -53 -134
-124 -113 -113 -131 -127 -145 -115 -14 12 -2 28 117 147 73 73 128 133 123
133 -6 0 -66 -56 -135 -125 -111 -111 -150 -142 -150 -117 0 4 79 86 175 182
96 96 175 177 175 181 0 3 -80 -75 -177 -173 -98 -98 -180 -178 -183 -178 -3
0 -11 10 -19 21 -12 20 -7 28 80 115 52 52 89 94 84 94 -6 0 -48 -38 -95 -85
-47 -47 -88 -85 -92 -85 -26 0 7 41 127 160 74 73 134 135 132 137 -2 2 -64
-58 -137 -132 -74 -74 -137 -135 -141 -135 -4 0 -9 8 -12 18 -3 11 44 66 147
172 l151 155 -152 -150 c-84 -82 -154 -147 -156 -145 -2 3 -9 24 -14 46 l-10
42 113 113 c63 63 114 116 114 120 0 3 -48 -43 -107 -102 -59 -60 -110 -109
-115 -109 -29 0 10 50 142 181 83 82 150 153 150 157 0 4 -65 -58 -145 -138
-80 -80 -145 -140 -145 -135 0 6 70 80 155 165 l155 155 86 4 c98 4 101 7 86
83 -18 94 24 203 101 262 139 106 356 51 432 -110 21 -44 30 -55 47 -52 24 3
31 16 48 76 19 72 96 142 190 173 40 13 133 3 176 -19z m-1336 -567 c-68 -68
-126 -123 -128 -121 -15 15 156 204 213 234 49 27 32 4 -85 -113z m1067 -1033
c-70 -69 -130 -123 -134 -119 -4 4 51 66 122 137 72 72 132 125 134 119 2 -6
-53 -68 -122 -137z m22 -38 c-92 -92 -129 -120 -129 -97 0 4 51 59 113 121 79
80 113 108 115 96 3 -10 -35 -55 -99 -120z m141 -44 c12 -24 47 -68 77 -98
l55 -55 -89 6 c-81 5 -224 41 -263 67 -12 8 3 28 80 105 l95 96 11 -39 c7 -21
22 -58 34 -82z"/>
<path d="M1585 4720 c-104 -104 -187 -190 -184 -190 3 0 70 65 150 143 169
168 235 237 228 237 -2 0 -90 -85 -194 -190z"/>
<path d="M1810 4102 c-85 -86 -152 -154 -148 -152 18 12 309 303 305 306 -1 2
-72 -67 -157 -154z"/>
<path d="M2715 4021 c-127 -125 -246 -246 -265 -267 -19 -21 86 80 233 226
147 146 267 266 267 267 0 8 -22 -14 -235 -226z"/>
<path d="M5810 5379 c-525 -42 -969 -445 -1050 -952 -18 -112 -8 -289 24 -410
59 -227 202 -451 375 -587 39 -30 73 -63 76 -72 8 -23 51 -23 64 0 7 13 2 33
-20 77 -44 89 -79 218 -86 318 l-6 88 24 -5 c13 -3 67 -12 119 -20 612 -97
989 -53 1296 150 96 63 213 184 267 275 94 160 117 352 62 518 -101 299 -428
543 -814 605 -116 19 -217 24 -331 15z m351 -89 c245 -50 456 -167 597 -333
108 -126 154 -240 154 -382 0 -264 -192 -515 -489 -637 -51 -21 -112 -43 -135
-48 -24 -4 -54 -12 -68 -16 -19 -5 -10 9 43 62 37 38 67 72 67 75 0 4 -35 -29
-77 -72 -45 -46 -86 -79 -98 -79 -14 0 9 29 85 108 l105 107 -115 -112 c-68
-67 -123 -113 -135 -113 -14 0 31 51 150 170 93 93 167 172 164 174 -3 3 -86
-76 -184 -174 -165 -165 -183 -180 -215 -180 l-35 0 108 108 c59 59 110 112
114 117 4 6 -47 -43 -112 -107 -72 -70 -128 -118 -140 -118 -14 0 32 52 153
173 94 95 172 177 172 182 0 5 -85 -75 -188 -178 -151 -150 -194 -187 -215
-187 -15 0 -27 3 -27 7 0 4 28 36 62 70 34 35 58 63 52 63 -5 0 -39 -29 -74
-65 -37 -37 -73 -65 -85 -65 -14 0 16 36 110 130 71 72 127 130 123 130 -3 0
-63 -58 -134 -130 -116 -118 -131 -130 -163 -130 l-35 0 49 50 c27 28 46 50
43 50 -4 0 -28 -22 -54 -50 -41 -43 -84 -65 -84 -43 0 4 46 55 102 113 l103
105 -110 -107 c-97 -95 -115 -108 -145 -108 l-34 0 39 40 c21 22 36 42 34 45
-3 2 -23 -13 -44 -35 -22 -22 -48 -40 -59 -40 -15 0 5 26 79 100 55 55 95 100
90 100 -5 0 -55 -45 -110 -100 -84 -84 -104 -99 -123 -93 -22 5 -18 12 60 92
l83 86 -90 -87 c-50 -49 -98 -88 -108 -88 -9 0 -17 3 -17 6 0 3 55 61 123 128
67 68 131 134 142 147 10 13 -49 -43 -132 -125 -148 -146 -151 -148 -184 -140
-19 4 -45 6 -59 5 -20 -2 1 24 108 131 72 73 132 138 132 143 0 5 -62 -52
-138 -128 -129 -129 -141 -138 -167 -131 l-28 7 29 27 c16 15 51 51 79 81 27
30 12 17 -35 -28 -48 -47 -94 -83 -105 -83 -14 0 21 41 118 138 75 75 137 142
137 147 0 5 -101 -91 -225 -215 -180 -180 -227 -222 -235 -210 -5 8 -10 19
-10 25 0 5 87 96 192 202 106 106 188 193 183 193 -6 0 -93 -83 -195 -185
-102 -102 -188 -185 -192 -185 -5 0 -8 7 -8 15 0 8 -4 15 -9 15 -5 0 -11 8
-14 19 -3 14 53 76 229 252 128 128 231 235 228 238 -3 3 -110 -100 -239 -229
-163 -163 -235 -229 -235 -215 0 13 97 117 270 290 149 148 270 274 270 280 0
5 -123 -113 -273 -263 -149 -149 -275 -272 -278 -272 -4 0 -9 10 -13 23 -5 18
23 51 177 205 100 100 177 182 172 182 -6 0 -87 -76 -180 -170 -93 -93 -173
-170 -177 -170 -27 0 15 49 207 240 118 118 215 219 215 225 0 5 -98 -88 -219
-209 l-218 -218 -7 48 -6 49 242 242 c133 133 240 244 237 247 -3 3 -110 -100
-239 -229 -129 -129 -238 -235 -242 -235 -5 0 -8 15 -8 33 0 28 17 49 140 170
77 75 136 137 132 137 -4 0 -66 -60 -139 -132 -95 -95 -133 -127 -133 -113 0
13 63 84 170 190 94 93 170 174 170 180 0 5 -76 -67 -170 -160 -158 -158 -170
-168 -170 -140 0 26 25 56 175 204 96 95 175 176 175 179 0 4 -76 -70 -170
-163 -120 -120 -170 -164 -170 -150 0 13 73 93 200 220 110 110 200 204 200
210 0 5 -88 -78 -196 -185 -179 -178 -195 -192 -189 -160 5 27 31 60 116 144
60 60 109 112 109 115 0 3 -47 -42 -105 -99 -84 -84 -103 -99 -95 -75 6 17 68
88 140 160 72 71 130 134 130 140 0 5 -54 -44 -120 -110 -66 -66 -120 -115
-120 -110 0 6 74 84 165 175 90 90 162 166 159 169 -2 3 -68 -58 -145 -134
-97 -97 -136 -130 -124 -106 9 18 34 52 56 76 21 23 36 45 32 48 -3 4 35 48
86 98 51 50 95 89 98 85 3 -3 25 12 48 33 80 74 273 156 440 186 113 21 330
18 446 -5z m-1102 -1506 c-42 -43 -67 -60 -73 -54 -7 7 13 34 59 80 51 52 71
66 73 54 3 -10 -21 -42 -59 -80z m61 8 c0 -20 -13 -41 -48 -75 -46 -46 -48
-46 -61 -26 -12 20 -8 26 40 75 29 30 57 54 61 54 4 0 8 -13 8 -28z m-31 -118
c-22 -23 -36 -31 -43 -24 -7 7 3 23 29 51 31 31 41 36 43 24 2 -10 -11 -32
-29 -51z m43 -11 c2 -18 -4 -38 -17 -53 l-20 -25 21 18 c20 17 22 17 28 1 3
-9 1 -23 -6 -31 -9 -11 -8 -13 3 -11 8 2 15 -7 17 -20 3 -17 -8 -10 -49 33
l-52 55 28 30 c35 37 43 37 47 3z"/>
<path d="M5135 4978 l-90 -93 93 90 c50 49 92 91 92 92 0 8 -12 -4 -95 -89z"/>
<path d="M5042 4327 c-177 -177 -210 -211 -197 -204 11 6 395 391 392 393 -1
2 -89 -83 -195 -189z"/>
<path d="M5153 4081 c-122 -123 -220 -227 -218 -230 3 -2 6 -2 8 0 1 3 103
107 227 232 124 125 220 226 215 225 -6 -1 -110 -103 -232 -227z"/>
<path d="M5385 3970 c-38 -38 -67 -70 -64 -70 3 0 37 32 76 70 38 39 67 70 64
70 -4 0 -38 -31 -76 -70z"/>
<path d="M9953 4390 c-49 -11 -81 -36 -103 -80 -56 -110 12 -230 132 -230 60
0 95 14 135 52 77 74 45 201 -62 249 -43 20 -53 21 -102 9z m64 -70 c26 0 73
-56 73 -88 0 -43 -49 -82 -101 -82 -69 0 -105 56 -79 124 10 27 57 58 78 51 8
-3 20 -5 29 -5z"/>
<path d="M10266 4115 c-8 -8 -24 -15 -36 -15 -15 0 -26 -11 -36 -37 -41 -98
60 -188 156 -138 62 32 76 118 27 162 -47 44 -85 53 -111 28z m52 -71 c26 -18
27 -27 6 -48 -35 -36 -87 0 -64 44 13 24 28 25 58 4z"/>
<path d="M2520 3010 c-285 -24 -533 -135 -720 -321 -103 -104 -192 -254 -232
-396 -27 -94 -32 -303 -9 -393 32 -129 122 -282 219 -372 122 -114 313 -205
444 -210 41 -2 45 -5 80 -59 66 -104 174 -168 317 -191 68 -11 161 1 187 23
27 22 17 58 -20 73 -41 17 -59 47 -51 85 13 61 88 100 238 125 54 9 123 26
155 38 218 81 390 261 469 491 37 107 43 281 13 397 -83 322 -314 555 -658
664 -125 39 -294 57 -432 46z m316 -90 c359 -75 623 -314 704 -634 87 -343
-116 -696 -469 -817 -86 -30 -91 -23 -28 37 33 30 57 57 55 59 -2 3 -33 -25
-68 -60 -36 -36 -71 -65 -80 -65 -8 0 26 40 75 90 49 49 87 92 84 94 -3 3 -50
-40 -104 -94 -60 -60 -108 -100 -120 -100 -14 0 26 46 140 160 88 88 155 160
150 160 -6 0 -86 -76 -180 -170 -116 -116 -178 -171 -198 -176 -40 -9 -125
-92 -133 -131 -4 -18 -25 -50 -53 -77 -39 -38 -51 -45 -69 -39 -20 8 1 31 203
233 124 124 225 229 225 235 0 5 -105 -94 -232 -221 -143 -142 -238 -230 -247
-227 -8 4 90 109 270 289 156 156 279 284 274 284 -6 0 -136 -126 -290 -280
-265 -265 -280 -278 -298 -263 -17 16 -11 24 130 167 l148 151 -152 -150
c-102 -99 -156 -146 -163 -139 -6 6 56 75 185 204 107 107 195 199 195 205 0
5 -90 -80 -200 -190 -185 -185 -201 -198 -213 -181 -13 18 -6 27 80 114 52 52
92 96 91 98 -2 2 -44 -37 -93 -86 -49 -50 -93 -90 -97 -90 -25 0 7 40 127 160
74 74 135 139 135 145 0 5 -64 -54 -142 -132 -139 -138 -143 -142 -154 -119
-10 22 -7 29 37 72 27 26 46 50 44 53 -3 2 -34 -24 -70 -58 -37 -36 -70 -59
-76 -55 -7 4 33 51 102 122 63 64 85 89 49 57 -36 -33 -87 -84 -114 -112 -39
-41 -57 -53 -80 -53 -29 0 -27 4 69 100 54 54 97 102 94 104 -3 3 -50 -40
-104 -94 -60 -60 -108 -100 -120 -100 -14 0 26 46 140 160 88 88 155 160 150
160 -5 0 -80 -70 -166 -156 -143 -143 -158 -155 -183 -148 -28 7 -28 7 53 88
45 45 81 86 81 91 0 5 -40 -30 -89 -79 -57 -56 -93 -86 -101 -81 -8 5 34 54
126 146 76 77 134 139 129 139 -5 0 -71 -61 -145 -135 -101 -101 -140 -134
-153 -129 -9 3 -17 9 -17 13 0 4 32 38 70 76 39 38 70 74 70 79 0 6 -36 -25
-79 -68 -50 -50 -83 -76 -91 -71 -8 5 31 50 116 136 71 71 124 129 119 129 -5
0 -66 -56 -135 -124 -117 -117 -126 -124 -145 -110 -18 14 -15 19 85 122 l105
107 -107 -105 c-72 -69 -111 -101 -118 -94 -6 6 41 60 140 159 83 82 150 154
150 160 0 5 -71 -61 -158 -148 -141 -141 -160 -156 -172 -142 -12 14 5 35 146
176 87 87 154 159 149 159 -6 0 -80 -70 -165 -155 -103 -103 -158 -151 -164
-145 -7 7 59 81 199 223 l210 212 -210 -207 c-116 -115 -213 -208 -217 -208
-4 0 -12 10 -19 21 -10 20 0 32 107 140 65 66 114 119 109 119 -6 0 -62 -52
-125 -115 -77 -77 -117 -111 -122 -102 -5 8 51 71 160 182 l167 170 -160 -155
c-88 -85 -163 -159 -166 -164 -8 -11 -29 1 -29 17 0 7 70 82 155 167 85 85
155 159 155 165 0 5 -71 -61 -158 -148 -86 -86 -161 -157 -165 -157 -25 0 15
47 195 227 112 112 198 203 193 203 -6 0 -98 -88 -205 -195 -107 -107 -198
-195 -201 -195 -4 0 -9 10 -13 23 -4 18 13 40 99 127 58 58 105 110 105 115 0
5 -49 -40 -110 -100 -79 -79 -110 -104 -110 -90 0 12 57 77 147 167 81 82 143
148 138 148 -6 0 -73 -63 -150 -140 -113 -114 -141 -137 -148 -124 -7 13 24
50 147 173 86 86 156 161 156 166 0 5 -69 -59 -154 -144 -105 -105 -155 -148
-159 -138 -3 9 62 82 189 208 106 106 191 195 188 198 -2 3 -90 -80 -194 -184
-159 -159 -190 -186 -190 -165 0 19 29 55 115 140 63 63 112 116 109 119 -2 3
-54 -44 -114 -104 -80 -80 -110 -104 -110 -90 0 13 55 75 145 165 80 80 145
149 145 155 0 5 -66 -55 -147 -135 -80 -80 -139 -133 -129 -117 9 15 12 27 8
27 -5 0 -7 11 -5 24 3 14 92 110 219 237 118 117 214 215 214 218 0 3 -95 -89
-211 -204 -139 -139 -209 -201 -204 -185 14 51 77 175 119 234 148 206 424
366 691 399 96 12 296 5 381 -13z m-197 -1756 c-12 -13 -32 -24 -43 -24 -17 0
-14 6 19 41 31 31 41 36 43 24 2 -9 -6 -28 -19 -41z m27 -22 c-8 -9 -19 -13
-22 -9 -10 9 16 38 28 31 6 -4 4 -13 -6 -22z"/>
<path d="M1813 2388 c-95 -94 -171 -173 -170 -174 2 -2 81 75 177 171 96 96
173 175 170 175 -3 0 -83 -77 -177 -172z"/>
<path d="M8785 2860 c-250 -40 -456 -140 -615 -299 -141 -142 -203 -286 -203
-476 0 -122 19 -201 75 -314 92 -183 277 -315 501 -358 108 -20 276 -13 368
16 l66 21 56 -25 c124 -54 208 -69 397 -69 200 -1 250 9 250 50 0 14 -7 27
-17 31 -60 20 -146 68 -184 101 l-44 39 52 27 c70 35 173 133 223 211 213 339
67 756 -334 955 -55 27 -139 59 -186 70 -98 24 -312 34 -405 20z m408 -94
c282 -83 482 -278 534 -521 34 -162 -19 -342 -139 -471 -55 -58 -173 -143
-184 -132 -2 3 19 26 47 53 28 26 45 45 39 43 -6 -2 -76 -68 -155 -147 l-143
-144 -46 14 -46 13 130 131 c71 72 130 135 130 140 0 5 -62 -53 -139 -129
-127 -127 -140 -137 -160 -127 -12 7 -19 17 -15 23 4 6 -1 8 -14 4 -39 -13
-31 11 23 64 30 30 55 58 55 63 0 4 -24 -18 -54 -50 -49 -53 -63 -62 -138 -86
-46 -15 -87 -27 -93 -27 -5 0 20 30 55 67 36 37 47 52 26 33 -22 -19 -55 -52
-75 -72 -34 -36 -37 -38 -99 -37 l-64 1 63 64 c35 35 61 66 58 68 -3 3 -36
-26 -74 -64 -46 -46 -77 -70 -92 -70 -13 0 -23 3 -23 7 0 4 24 32 53 62 l52
54 -57 -49 c-32 -27 -58 -52 -58 -56 0 -5 -9 -8 -20 -8 -11 0 -20 3 -20 7 0 4
51 60 112 123 l113 115 -120 -117 c-66 -65 -127 -118 -135 -118 -8 0 -32 6
-52 13 l-37 13 94 94 c52 52 95 99 95 105 0 5 -46 -36 -103 -93 -93 -93 -104
-101 -121 -89 -17 13 -17 16 15 53 l33 39 -42 -40 c-28 -26 -45 -36 -52 -29
-6 6 19 39 75 94 47 47 85 89 85 95 0 5 -43 -33 -95 -85 -90 -89 -96 -94 -112
-77 -16 16 -14 20 45 80 34 34 62 67 62 72 0 5 -31 -21 -69 -59 -43 -43 -73
-66 -81 -61 -8 5 27 48 106 128 66 67 88 92 49 57 -38 -36 -93 -90 -121 -120
-46 -48 -54 -53 -68 -40 -16 12 -6 25 103 134 67 67 121 126 121 131 0 5 -56
-46 -124 -114 -80 -80 -128 -121 -136 -116 -8 5 45 65 161 181 96 96 169 174
164 174 -5 0 -84 -74 -175 -165 -159 -159 -167 -165 -183 -147 -16 17 -12 22
63 97 44 44 80 84 80 90 0 5 -38 -28 -84 -74 -56 -56 -86 -79 -91 -71 -5 8 38
58 121 141 71 71 124 129 119 129 -6 0 -64 -54 -130 -120 -108 -108 -121 -119
-133 -103 -11 15 2 32 110 143 l123 125 -120 -118 c-66 -64 -124 -117 -128
-117 -29 0 12 54 126 167 72 72 145 146 162 165 16 18 -46 -41 -137 -131
l-167 -165 -11 29 c-10 27 -8 32 57 99 l68 71 -66 -64 c-45 -43 -69 -59 -74
-51 -5 8 31 51 99 119 58 58 106 111 106 116 0 5 -47 -37 -104 -94 -95 -95
-104 -101 -109 -79 -6 19 11 41 106 138 l112 115 -105 -103 c-58 -56 -109
-102 -113 -102 -24 0 9 42 138 170 80 80 145 149 145 155 0 5 -65 -55 -145
-135 -136 -135 -145 -143 -139 -110 4 19 12 40 18 45 6 6 34 35 61 65 l49 55
-57 -55 c-42 -40 -57 -50 -57 -36 0 10 41 61 92 112 108 110 107 127 0 22 -41
-40 -70 -64 -64 -53 6 11 60 69 121 130 61 60 111 114 111 120 0 5 -46 -35
-101 -90 -72 -71 -96 -90 -83 -66 31 57 129 155 209 210 125 87 276 147 442
177 119 21 306 12 416 -20z m163 -1197 c3 -6 -20 -38 -52 -72 l-59 -62 61 58
c34 33 64 55 67 50 3 -5 -18 -33 -46 -61 -48 -47 -56 -52 -85 -46 -18 4 -32 9
-32 11 0 8 124 133 132 133 4 0 10 -5 14 -11z m73 -81 c20 -18 47 -41 61 -50
24 -17 23 -17 -57 -17 -55 -1 -83 3 -83 10 0 8 -4 8 -15 -1 -8 -6 -19 -9 -25
-5 -8 5 3 23 31 51 24 24 45 44 47 44 3 0 21 -15 41 -32z"/>
<path d="M9210 1543 c-41 -42 -55 -59 -30 -37 45 39 116 114 108 114 -2 0 -37
-35 -78 -77z"/>
<path d="M8505 1548 l-40 -43 43 40 c39 36 47 45 39 45 -2 0 -21 -19 -42 -42z"/>
<path d="M5550 2639 c-550 -46 -876 -222 -997 -537 -30 -80 -42 -226 -24 -312
28 -132 117 -251 228 -301 l62 -29 383 3 c350 2 386 0 423 -16 98 -44 140
-134 99 -212 -32 -61 -24 -95 23 -95 63 0 126 63 182 184 64 139 94 151 340
136 379 -22 602 43 769 225 68 74 108 150 128 243 17 84 17 120 0 204 -61 283
-324 471 -715 507 -128 12 -759 12 -901 0z m883 -70 c370 -28 619 -206 669
-478 42 -227 -139 -458 -422 -538 -56 -15 -106 -18 -350 -19 -265 0 -288 -1
-330 -20 -59 -27 -94 -69 -143 -174 l-41 -85 -7 55 c-4 30 -10 62 -13 70 -4
10 27 48 99 120 58 57 105 109 105 115 0 5 -49 -40 -110 -100 -60 -60 -113
-106 -117 -102 -4 4 49 65 117 135 69 69 121 123 115 119 -5 -4 -63 -60 -127
-124 -98 -98 -118 -114 -124 -99 -6 15 27 53 160 184 91 91 165 166 163 168
-2 2 -79 -73 -172 -166 -161 -161 -170 -169 -187 -153 -18 16 -15 21 69 107
l88 91 -90 -87 c-81 -79 -115 -103 -115 -80 0 4 61 68 135 142 74 74 135 139
135 145 0 5 -64 -54 -143 -133 -133 -133 -168 -158 -190 -135 -4 3 0 15 10 25
9 10 12 18 6 18 -5 0 -18 -9 -28 -20 -18 -20 -45 -27 -45 -12 0 4 32 39 70 77
39 38 70 72 70 76 0 4 -35 -29 -77 -72 l-76 -79 -66 0 -65 0 59 62 c68 70 52
62 -24 -13 -49 -48 -51 -49 -113 -49 l-62 0 59 60 c33 33 55 60 49 60 -5 0
-36 -27 -69 -60 -46 -47 -66 -60 -89 -60 l-30 0 49 52 c36 37 40 44 15 23 -19
-15 -41 -36 -49 -47 -14 -21 -60 -42 -69 -33 -3 3 46 58 108 123 l115 117
-122 -119 c-112 -110 -125 -120 -165 -123 l-43 -4 55 58 55 58 -60 -57 c-40
-38 -69 -58 -85 -58 -21 0 -10 15 75 99 55 54 109 109 120 122 10 13 -37 -31
-106 -98 -111 -110 -128 -123 -159 -123 l-35 0 68 67 c37 36 66 67 64 69 -2 2
-34 -28 -72 -66 -40 -41 -78 -70 -90 -70 -14 0 15 35 108 128 70 70 127 132
127 137 0 5 -62 -52 -137 -127 -129 -128 -139 -136 -158 -122 -18 14 -14 20
95 129 63 63 110 115 105 115 -6 0 -60 -49 -120 -110 -97 -98 -135 -126 -135
-103 0 4 73 82 163 173 l162 165 -167 -165 c-159 -156 -169 -164 -185 -147
-16 16 -8 26 150 182 92 92 167 169 167 173 0 4 -76 -70 -170 -163 -113 -113
-173 -166 -180 -159 -6 6 62 81 205 224 118 118 215 219 215 225 0 5 -99 -89
-220 -210 -176 -176 -222 -217 -230 -205 -5 8 -10 19 -10 25 0 5 57 67 127
137 70 71 123 128 118 128 -6 0 -64 -54 -130 -120 -66 -66 -123 -120 -126
-120 -4 0 -15 29 -24 64 -21 78 -17 204 10 283 15 43 36 70 120 152 56 56 99
101 96 101 -3 0 -43 -37 -89 -82 -87 -85 -96 -80 -20 10 152 181 453 297 831
318 62 4 114 8 116 10 8 7 661 1 764 -7z"/>
<path d="M4725 2150 c-54 -55 -97 -102 -94 -104 3 -3 50 39 104 94 54 55 97
102 94 104 -3 3 -50 -39 -104 -94z"/>
<path d="M4800 2073 l-175 -178 178 175 c97 96 177 176 177 177 0 8 -18 -10
-180 -174z"/>
<path d="M4690 2053 l-65 -68 68 65 c62 60 72 70 64 70 -1 0 -32 -30 -67 -67z"/>
<path d="M4765 1978 l-140 -143 143 140 c132 130 147 145 139 145 -1 0 -65
-64 -142 -142z"/>
<path d="M4785 1930 c-87 -88 -157 -162 -154 -164 3 -3 77 66 164 154 87 88
157 162 154 164 -3 3 -77 -66 -164 -154z"/>
<path d="M5880 1445 c-24 -24 -42 -47 -39 -50 3 -2 27 18 54 45 27 28 45 50
39 50 -5 0 -30 -20 -54 -45z"/>
<path d="M5797 644 c-4 -4 -7 -18 -7 -31 0 -26 -3 -27 -103 -24 -60 1 -70 -1
-92 -23 -29 -29 -34 -98 -10 -133 21 -29 78 -48 105 -33 13 7 20 7 20 1 0 -17
-40 -33 -66 -27 -13 4 -24 11 -24 16 0 6 -9 10 -20 10 -25 0 -26 -22 -2 -42
45 -40 113 -33 143 15 14 24 19 51 19 105 0 57 3 72 15 72 12 0 15 -14 15 -65
0 -73 11 -85 74 -85 l36 0 0 69 c0 61 3 70 20 76 11 3 20 15 20 26 0 16 -6 18
-43 15 -52 -5 -64 1 -68 33 -4 25 -20 37 -32 25z m-92 -118 c20 -31 11 -69
-20 -86 -36 -19 -75 9 -75 53 0 40 15 57 52 57 18 0 33 -8 43 -24z m155 -36
c0 -49 -3 -58 -15 -54 -11 5 -15 21 -15 60 0 41 4 54 15 54 12 0 15 -13 15
-60z"/>
<path d="M5200 575 c-9 -11 -12 -189 -4 -217 3 -10 11 -18 19 -18 17 0 28 34
20 61 -7 20 -6 20 20 3 52 -34 135 19 135 86 0 29 -26 77 -49 90 -24 12 -130
9 -141 -5z m137 -51 c15 -23 15 -29 2 -52 -23 -40 -43 -48 -73 -29 -29 19 -36
67 -13 92 21 24 64 18 84 -11z"/>
<path d="M5407 583 c-4 -3 -7 -46 -7 -95 0 -81 2 -88 20 -88 18 0 20 7 20 59
0 77 6 91 40 91 34 0 40 -14 40 -91 0 -52 2 -59 20 -59 18 0 20 7 20 69 0 84
-22 121 -74 121 -17 0 -37 -5 -44 -12 -9 -9 -12 -9 -12 0 0 13 -13 16 -23 5z"/>
<path d="M5958 560 c-27 -28 -30 -36 -25 -76 8 -73 74 -112 136 -80 27 14 51
43 51 60 0 13 -33 4 -61 -16 -28 -21 -32 -21 -56 -8 -51 29 -40 40 41 40 70 0
77 -2 85 -22 24 -64 107 -84 155 -39 49 46 21 70 -33 30 -33 -24 -65 -19 -81
12 -10 18 -7 19 65 19 86 0 96 9 71 59 -20 37 -44 51 -88 51 -39 0 -76 -23
-88 -54 -8 -21 -8 -21 -15 -1 -23 61 -107 74 -157 25z m110 -22 c20 -20 14
-23 -42 -24 -50 0 -54 1 -45 18 11 21 68 25 87 6z m190 0 c20 -20 14 -24 -43
-24 -51 0 -53 1 -38 18 18 21 63 24 81 6z"/>
<path d="M6401 566 c-82 -88 29 -237 114 -151 14 13 25 20 25 14 0 -5 15 -16
33 -24 50 -21 100 -4 117 40 7 17 9 15 9 -12 1 -26 5 -33 21 -33 18 0 20 7 20
59 0 75 6 91 36 91 23 0 24 -3 24 -75 0 -68 2 -75 20 -75 17 0 19 8 22 73 3
70 4 72 31 75 l27 3 0 -75 c0 -69 2 -76 20 -76 18 0 20 7 20 78 0 64 -4 82
-18 95 -21 19 -54 22 -83 6 -13 -7 -24 -7 -32 -1 -7 6 -33 10 -59 10 -47 -1
-48 -2 -49 -32 0 -28 -1 -29 -9 -9 -18 45 -102 60 -134 24 -17 -19 -18 -19
-37 0 -28 28 -89 26 -118 -5z m103 -41 c9 -13 16 -29 16 -35 0 -17 -43 -60
-61 -60 -36 0 -58 59 -35 95 21 33 59 33 80 0z m146 6 c16 -31 12 -66 -10 -86
-42 -38 -94 18 -71 78 8 21 17 27 40 27 20 0 34 -7 41 -19z"/>
<path d="M6324 419 c-8 -14 11 -33 25 -25 6 4 11 14 11 22 0 16 -26 19 -36 3z"/>
</g>
</svg>
